# xmcd
#
# Track frame offsets: 
#        150
#        11574
#        26938
#        48649
#        67683
#        85176
#        97239
#        113795
#        136274
#        153007
#        172908
#        189516
#
# Disc length: 2806 seconds
#
# Revision: 8
# Processed by: cddbd v1.5.2PL0 Copyright (c) Steve Scherf et al.
# Submitted via: ExactAudioCopy v1.3
#
DISCID=930af40c
DTITLE=??? - ??????
DYEAR=2014
DGENRE=Pop
TTITLE0=???
TTITLE1=??
TTITLE2=?????
TTITLE3=????
TTITLE4=???
TTITLE5=??????
TTITLE6=????
TTITLE7=?????
TTITLE8=?????
TTITLE9=?????
TTITLE10=???
TTITLE11=???????
EXTD=
EXTT0=
EXTT1=
EXTT2=
EXTT3=
EXTT4=
EXTT5=
EXTT6=
EXTT7=
EXTT8=
EXTT9=
EXTT10=
EXTT11=
PLAYORDER=
